<svg width="82" height="69" viewBox="0 0 82 69" fill="none" xmlns="http://www.w3.org/2000/svg">
<path d="M31.6697 10.8194V2.48455C31.6697 1.11639 30.55 0 29.1851 0H20.8503C19.4822 0 18.3658 1.11639 18.3658 2.48455V10.8194C18.3658 12.1875 19.4855 13.3039 20.8503 13.3039H29.1851C30.55 13.3039 31.6697 12.1875 31.6697 10.8194ZM81.6482 10.8194V2.48455C81.6482 1.11639 80.5285 0 79.1636 0H70.8321C69.4639 0 68.3475 1.11639 68.3475 2.48455V10.8194C68.3475 12.1875 69.4673 13.3039 70.8321 13.3039H79.1636C80.5318 13.3039 81.6482 12.1842 81.6482 10.8194ZM13.3039 29.2216V20.8868C13.3039 19.5186 12.1842 18.4022 10.8194 18.4022H2.48784C1.11968 18.4022 0.0032959 19.5186 0.0032959 20.8868V29.2216C0.0032959 30.5898 1.123 31.7061 2.48784 31.7061H10.8194C12.1875 31.7061 13.3039 30.5864 13.3039 29.2216ZM50.0553 29.2216V20.8868C50.0553 19.5186 48.9356 18.4022 47.5708 18.4022H39.2393C37.8711 18.4022 36.7547 19.5186 36.7547 20.8868V29.2216C36.7547 30.5898 37.8744 31.7061 39.2393 31.7061H47.5708C48.9389 31.7061 50.0553 30.5864 50.0553 29.2216ZM81.6515 29.2216V20.8868C81.6515 19.5186 80.5318 18.4022 79.1669 18.4022H70.8354C69.4673 18.4022 68.3509 19.5186 68.3509 20.8868V29.2216C68.3509 30.5898 69.4706 31.7061 70.8354 31.7061H79.1669C80.5351 31.7061 81.6515 30.5864 81.6515 29.2216ZM13.3072 47.6238V39.289C13.3072 37.9208 12.1875 36.8044 10.8227 36.8044H2.49116C1.123 36.8044 0.00661186 37.9208 0.00661186 39.289V47.6238C0.00661186 48.9919 1.12631 50.1083 2.49116 50.1083H10.8227C12.1908 50.1083 13.3072 48.9886 13.3072 47.6238ZM31.6763 47.6238V39.289C31.6763 37.9208 30.5566 36.8044 29.1918 36.8044H20.8569C19.4888 36.8044 18.3724 37.9208 18.3724 39.289V47.6238C18.3724 48.9919 19.4921 50.1083 20.8569 50.1083H29.1918C30.5566 50.1083 31.6763 48.9886 31.6763 47.6238ZM50.0586 47.6238V39.289C50.0586 37.9208 48.9389 36.8044 47.5741 36.8044H39.2426C37.8744 36.8044 36.758 37.9208 36.758 39.289V47.6238C36.758 48.9919 37.8777 50.1083 39.2426 50.1083H47.5741C48.9423 50.1083 50.0586 48.9886 50.0586 47.6238ZM81.6548 47.6238V39.289C81.6548 37.9208 80.5351 36.8044 79.1702 36.8044H70.8387C69.4706 36.8044 68.3542 37.9208 68.3542 39.289V47.6238C68.3542 48.9919 69.4739 50.1083 70.8387 50.1083H79.1702C80.5384 50.1083 81.6548 48.9886 81.6548 47.6238ZM13.3105 66.026V57.6912C13.3105 56.323 12.1908 55.2066 10.826 55.2066H2.49447C1.12632 55.2066 0.00992782 56.323 0.00992782 57.6912V66.026C0.00992782 67.3942 1.12963 68.5105 2.49447 68.5105H10.826C12.1941 68.5105 13.3105 67.3908 13.3105 66.026ZM50.062 66.026V57.6912C50.062 56.323 48.9423 55.2066 47.5774 55.2066H39.2459C37.8777 55.2066 36.7613 56.323 36.7613 57.6912V66.026C36.7613 67.3942 37.8811 68.5105 39.2459 68.5105H47.5774C48.9456 68.5105 50.062 67.3908 50.062 66.026ZM81.6581 66.026V57.6912C81.6581 56.323 80.5384 55.2066 79.1736 55.2066H70.842C69.4739 55.2066 68.3575 56.323 68.3575 57.6912V66.026C68.3575 67.3942 69.4772 68.5105 70.842 68.5105H79.1736C80.5417 68.5105 81.6581 67.3908 81.6581 66.026Z" fill="#222222"/>
</svg>
