<svg width="70" height="59" viewBox="0 0 70 59" fill="none" xmlns="http://www.w3.org/2000/svg">
<path d="M27.1466 9.2751V2.12992C27.1466 0.957044 26.1867 0 25.0166 0H17.8715C16.6986 0 15.7415 0.957044 15.7415 2.12992V9.2751C15.7415 10.448 16.7014 11.405 17.8715 11.405H25.0166C26.1867 11.405 27.1466 10.448 27.1466 9.2751ZM69.9915 9.2751V2.12992C69.9915 0.957044 69.0316 0 67.8615 0H60.7192C59.5463 0 58.5893 0.957044 58.5893 2.12992V9.2751C58.5893 10.448 59.5492 11.405 60.7192 11.405H67.8615C69.0344 11.405 69.9915 10.4451 69.9915 9.2751ZM11.4022 25.0507V17.9055C11.4022 16.7327 10.4423 15.7756 9.27226 15.7756H2.12992C0.957044 15.7756 0 16.7327 0 17.9055V25.0507C0 26.2236 0.959884 27.1806 2.12992 27.1806H9.27226C10.4451 27.1806 11.4022 26.2208 11.4022 25.0507ZM42.908 25.0507V17.9055C42.908 16.7327 41.9481 15.7756 40.778 15.7756H33.6357C32.4628 15.7756 31.5058 16.7327 31.5058 17.9055V25.0507C31.5058 26.2236 32.4657 27.1806 33.6357 27.1806H40.778C41.9509 27.1806 42.908 26.2208 42.908 25.0507ZM27.1522 40.8263V33.6812C27.1522 32.5083 26.1924 31.5512 25.0223 31.5512H17.8771C16.7043 31.5512 15.7472 32.5083 15.7472 33.6812V40.8263C15.7472 41.9992 16.7071 42.9562 17.8771 42.9562H25.0223C26.1924 42.9562 27.1522 41.9963 27.1522 40.8263ZM11.4079 56.6019V49.4567C11.4079 48.2839 10.448 47.3268 9.27794 47.3268H2.1356C0.962729 47.3268 0.00568533 48.2839 0.00568533 49.4567V56.6019C0.00568533 57.7748 0.965569 58.7318 2.1356 58.7318H9.27794C10.4508 58.7318 11.4079 57.772 11.4079 56.6019ZM42.9137 56.6019V49.4567C42.9137 48.2839 41.9538 47.3268 40.7837 47.3268H33.6414C32.4685 47.3268 31.5115 48.2839 31.5115 49.4567V56.6019C31.5115 57.7748 32.4714 58.7318 33.6414 58.7318H40.7837C41.9566 58.7318 42.9137 57.772 42.9137 56.6019ZM70 56.6019V49.4567C70 48.2839 69.0401 47.3268 67.8701 47.3268H60.7277C59.5549 47.3268 58.5978 48.2839 58.5978 49.4567V56.6019C58.5978 57.7748 59.5577 58.7318 60.7277 58.7318H67.8701C69.043 58.7318 70 57.772 70 56.6019Z" fill="#222222"/>
</svg>
